HIERARCHY
ROOT Hips
{
	OFFSET 0.000000 0.000000 0.000000
	CHANNELS 6 Xposition Yposition Zposition Zrotation Yrotation Xrotation 
	JOINT LHipJoint
	{
		OFFSET 0.000000 0.000000 0.000000
		CHANNELS 3 Zrotation Yrotation Xrotation
		JOINT LeftUpLeg
		{
			OFFSET 1.363060 -1.794630 0.839290
			CHANNELS 3 Zrotation Yrotation Xrotation
			JOINT LeftLeg
			{
				OFFSET 2.448110 -6.726130 0.000000
				CHANNELS 3 Zrotation Yrotation Xrotation
				JOINT LeftFoot
				{
					OFFSET 2.562200 -7.039590 0.000000
					CHANNELS 3 Zrotation Yrotation Xrotation
					JOINT LeftToeBase
					{
						OFFSET 0.157640 -0.433110 2.322550
						CHANNELS 3 Zrotation Yrotation Xrotation
						End Site
						{
							OFFSET 0.000000 0.000000 0.000000
						}
					}
				}
			}
		}
	}
	JOINT RHipJoint
	{
		OFFSET 0.000000 0.000000 0.000000
		CHANNELS 3 Zrotation Yrotation Xrotation
		JOINT RightUpLeg
		{
			OFFSET -1.305520 -1.794630 0.839290
			CHANNELS 3 Zrotation Yrotation Xrotation
			JOINT RightLeg
			{
				OFFSET -2.542530 -6.985550 0.000000
				CHANNELS 3 Zrotation Yrotation Xrotation
				JOINT RightFoot
				{
					OFFSET -2.568260 -7.056230 0.000000
					CHANNELS 3 Zrotation Yrotation Xrotation
					JOINT RightToeBase
					{
						OFFSET -0.164730 -0.452590 2.363150
						CHANNELS 3 Zrotation Yrotation Xrotation
						End Site
						{
							OFFSET 0.000000 0.000000 0.000000
						}
					}
				}
			}
		}
	}
	JOINT LowerBack
	{
		OFFSET 0.000000 0.000000 0.000000
		CHANNELS 3 Zrotation Yrotation Xrotation
		JOINT Spine
		{
			OFFSET 0.028270 2.035590 -0.193380
			CHANNELS 3 Zrotation Yrotation Xrotation
			JOINT Spine1
			{
				OFFSET 0.056720 2.048850 -0.042750
				CHANNELS 3 Zrotation Yrotation Xrotation
				JOINT Neck
				{
					OFFSET 0.000000 0.000000 0.000000
					CHANNELS 3 Zrotation Yrotation Xrotation
					JOINT Neck1
					{
						OFFSET -0.054170 1.746240 0.172020
						CHANNELS 3 Zrotation Yrotation Xrotation
						JOINT Head
						{
							OFFSET 0.104070 1.761360 -0.123970
							CHANNELS 3 Zrotation Yrotation Xrotation
							End Site
							{
								OFFSET 0.000000 0.000000 0.000000
							}
						}
					}
				}
				JOINT LeftShoulder
				{
					OFFSET 0.000000 0.000000 0.000000
					CHANNELS 3 Zrotation Yrotation Xrotation
					JOINT LeftArm
					{
						OFFSET 3.362410 1.200890 -0.311210
						CHANNELS 3 Zrotation Yrotation Xrotation
						JOINT LeftForeArm
						{
							OFFSET 4.983000 -0.000000 -0.000000
							CHANNELS 3 Zrotation Yrotation Xrotation
							JOINT LeftHand
							{
								OFFSET 3.483560 -0.000000 -0.000000
								CHANNELS 3 Zrotation Yrotation Xrotation
								JOINT LeftFingerBase
								{
									OFFSET 0.000000 0.000000 0.000000
									CHANNELS 3 Zrotation Yrotation Xrotation
									JOINT LeftHandIndex1
									{
										OFFSET 0.715260 -0.000000 -0.000000
										CHANNELS 3 Zrotation Yrotation Xrotation
										End Site
										{
											OFFSET 0.000000 0.000000 0.000000
										}
									}
								}
								JOINT LThumb
								{
									OFFSET 0.000000 0.000000 0.000000
									CHANNELS 3 Zrotation Yrotation Xrotation
									End Site
									{
										OFFSET 0.000000 0.000000 0.000000
									}
								}
							}
						}
					}
				}
				JOINT RightShoulder
				{
					OFFSET 0.000000 0.000000 0.000000
					CHANNELS 3 Zrotation Yrotation Xrotation
					JOINT RightArm
					{
						OFFSET -3.136600 1.374050 -0.404650
						CHANNELS 3 Zrotation Yrotation Xrotation
						JOINT RightForeArm
						{
							OFFSET -5.241900 -0.000000 -0.000000
							CHANNELS 3 Zrotation Yrotation Xrotation
							JOINT RightHand
							{
								OFFSET -3.444170 -0.000000 -0.000000
								CHANNELS 3 Zrotation Yrotation Xrotation
								JOINT RightFingerBase
								{
									OFFSET 0.000000 0.000000 0.000000
									CHANNELS 3 Zrotation Yrotation Xrotation
									JOINT RightHandIndex1
									{
										OFFSET -0.622530 -0.000000 -0.000000
										CHANNELS 3 Zrotation Yrotation Xrotation
										End Site
										{
											OFFSET 0.000000 0.000000 0.000000
										}
									}
								}
								JOINT RThumb
								{
									OFFSET 0.000000 0.000000 0.000000
									CHANNELS 3 Zrotation Yrotation Xrotation
									End Site
									{
										OFFSET 0.000000 0.000000 0.000000
									}
								}
							}
						}
					}
				}
			}
		}
	}
}
MOTION
Frames: 7
Frame Time: 0.008333
-0.919012 18.377289 5.333728 -2.810754 -2.353483 -0.414677 1.227249 4.406435 4.631711 -10.252885 -5.824553 -9.069609 1.208321 7.332436 24.295868 -0.843264 6.221305 -10.868081 8.693000 -16.606000 -55.022100 -2.835558 -4.368328 3.680954 19.538078 1.915586 4.448319 0.481572 1.074047 1.733724 0.673742 -5.754610 -9.945381 -0.186600 2.781800 -7.671800 3.565501 0.628556 1.937026 2.184628 -0.013074 36.570818 -4.176035 1.079631 -16.442172 -6.132086 0.190958 -14.811651 8.350513 0.574714 16.295729 2.173600 0.677500 5.986100 4.130225 -6.105646 -1.287008 -41.151074 -22.084409 35.650514 148.280200 -37.591442 -108.672493 -0.688458 -0.320657 -62.812326 25.043101 -21.436101 -10.125000 -7.125000 0.000000 0.000000 -1.977800 6.024000 1.760400 -6.151821 7.646707 1.668324 92.956717 -15.021780 9.588027 -47.515895 50.427392 -18.790872 1.924750 -2.402489 6.035374 5.483925 -43.033483 -2.115000 7.125000 0.000000 0.000000 49.500200 -64.194300 -25.972400 
-0.933557 18.378567 5.329011 -2.849361 -2.327303 -0.400148 1.226985 4.407336 4.626285 -10.159407 -5.902075 -9.102174 1.209436 7.346805 24.321855 -0.857612 6.287962 -10.907567 8.698300 -16.609600 -55.040600 -2.839199 -4.360198 3.669603 19.639568 1.882296 4.440914 0.481883 1.074948 1.734418 0.671192 -5.745532 -9.955441 -0.194100 2.837000 -7.825200 3.560889 0.595159 2.051117 2.141864 -0.028983 36.542905 -4.218083 1.053787 -16.524547 -6.931966 -0.150727 -15.428974 9.662395 0.080235 17.571949 2.561700 0.566700 6.355700 4.173194 -6.095975 -1.256802 -41.426561 -21.706059 35.560424 147.879546 -37.946870 -108.402158 -0.715217 -0.296401 -62.275565 24.680483 -21.889659 -10.168000 -7.125000 0.000000 0.000000 -2.264500 5.573700 2.035500 -6.090095 7.674788 1.693789 92.858231 -14.978316 9.647353 -47.545175 50.437527 -18.821538 1.920430 -2.400327 5.972119 5.519663 -43.242956 -2.151800 7.125000 0.000000 0.000000 49.862900 -64.321900 -26.351800 
-0.949085 18.379156 5.323999 -2.895749 -2.290024 -0.356170 1.231856 4.406812 4.620242 -10.063528 -5.935798 -9.193660 1.212165 7.362764 24.353407 -0.883743 6.388044 -10.897225 8.756500 -16.648400 -55.244100 -2.838571 -4.354741 3.664059 19.751250 1.854374 4.394332 0.481825 1.075279 1.734493 0.667205 -5.720763 -9.943682 -0.185300 2.772800 -7.646800 3.549986 0.570578 2.151867 2.141095 -0.051440 36.524571 -4.224908 1.033196 -16.600382 -7.197558 -0.367924 -15.844033 10.139214 -0.225153 18.384728 2.704000 0.487100 6.596000 4.186322 -6.083108 -1.235227 -41.711741 -21.338173 35.429152 147.567821 -38.222164 -108.189493 -0.725034 -0.281398 -61.905997 24.593900 -22.029349 -10.191000 -7.125000 0.000000 0.000000 -2.339800 5.427300 2.109800 -6.070702 7.701181 1.710320 92.750019 -14.924568 9.680786 -47.558722 50.434759 -18.828509 1.914631 -2.398296 5.992072 5.398557 -43.188543 -2.073100 7.125000 0.000000 0.000000 49.669600 -64.316800 -26.219400 
-0.964614 18.379451 5.318495 -2.928819 -2.256667 -0.300737 1.233491 4.402348 4.616031 -9.981774 -5.994898 -9.289473 1.216571 7.377804 24.387703 -0.905960 6.466697 -10.864777 8.790600 -16.671100 -55.363100 -2.840579 -4.354926 3.664835 19.852246 1.846403 4.321204 0.482142 1.075011 1.733746 0.667490 -5.717042 -9.923821 -0.172900 2.678500 -7.385000 3.480976 0.525235 2.207246 2.072479 -0.099405 36.515919 -4.138525 1.000915 -16.667382 -6.940302 -0.453736 -16.049643 9.920492 -0.341367 18.925628 2.631500 0.448900 6.742200 4.185068 -6.062631 -1.216943 -41.930958 -20.910178 35.208271 147.236005 -38.508230 -107.965320 -0.729809 -0.264230 -61.439220 24.466961 -21.964523 -10.106900 -7.125000 0.000000 0.000000 -2.418100 5.510900 2.176700 -6.074222 7.735123 1.720398 92.646405 -14.863293 9.776408 -47.541901 50.417098 -18.802696 1.915215 -2.395310 6.105519 5.395376 -42.944569 -2.058700 7.125000 0.000000 0.000000 49.298300 -64.160800 -25.803800 
-0.978078 18.380434 5.312893 -2.942222 -2.234086 -0.263686 1.225050 4.396323 4.616809 -9.926202 -6.191175 -9.304896 1.216318 7.390929 24.419042 -0.936592 6.607556 -10.956550 8.780600 -16.664400 -55.328100 -2.848863 -4.358429 3.668792 19.925846 1.848688 4.259870 0.482695 1.075023 1.733256 0.664548 -5.706097 -9.934504 -0.164100 2.610300 -7.195500 3.393046 0.436395 2.233109 1.863485 -0.178204 36.515508 -3.965315 0.940425 -16.730497 -6.263049 -0.449261 -16.094653 9.228142 -0.334835 19.408094 2.406800 0.441600 6.849800 4.186254 -6.034933 -1.197330 -42.101008 -20.368868 34.918334 146.923824 -38.776743 -107.751274 -0.741041 -0.249025 -61.077962 24.264292 -22.088952 -10.071500 -7.125000 0.000000 0.000000 -2.563600 5.400600 2.313300 -6.079859 7.780972 1.730688 92.516137 -14.840346 10.059102 -47.572396 50.430540 -18.814400 1.922373 -2.389985 6.187461 5.625612 -42.888300 -2.202100 7.125000 0.000000 0.000000 49.440500 -64.072800 -25.798500 
-0.989675 18.382105 5.307488 -2.965349 -2.216223 -0.250477 1.220817 4.394868 4.617455 -9.871824 -6.381539 -9.285187 1.211974 7.399493 24.435220 -0.980849 6.805639 -11.064897 8.794700 -16.673800 -55.377400 -2.854077 -4.358346 3.669167 20.002901 1.841105 4.230164 0.483202 1.075396 1.732939 0.667914 -5.719383 -9.915980 -0.169300 2.650900 -7.308300 3.363724 0.377840 2.293625 1.730847 -0.226386 36.521352 -3.858248 0.898449 -16.790216 -5.748430 -0.481579 -16.196413 8.692385 -0.372005 19.923167 2.233800 0.420600 6.975900 4.183819 -6.012981 -1.181458 -42.346424 -19.909011 34.720946 146.644839 -39.016859 -107.555363 -0.757511 -0.236582 -60.758539 24.102467 -22.398415 -10.132900 -7.125000 0.000000 0.000000 -2.702100 5.082900 2.454900 -6.088080 7.821300 1.743520 92.382167 -14.832655 10.255903 -47.665348 50.473931 -18.875027 1.925890 -2.383286 6.168895 5.730369 -42.932892 -2.272100 7.125000 0.000000 0.000000 49.617700 -64.080500 -25.922200 
-1.000879 18.383186 5.301984 -2.981747 -2.185717 -0.240054 1.222254 4.395567 4.615667 -9.818584 -6.425328 -9.316135 1.211270 7.404726 24.441655 -1.008590 6.906844 -11.038323 8.832000 -16.698400 -55.507200 -2.856541 -4.356126 3.666626 20.073422 1.814034 4.207856 0.483824 1.075691 1.732468 0.679319 -5.767789 -9.872820 -0.184600 2.767500 -7.632000 3.354358 0.360077 2.408804 1.695467 -0.236465 36.504117 -3.824893 0.884176 -16.881802 -5.637387 -0.563417 -16.295400 8.668158 -0.496426 20.416552 2.219300 0.384500 7.099400 4.185151 -6.001229 -1.167833 -42.649733 -19.471489 34.633631 146.415593 -39.211942 -107.394995 -0.766426 -0.224175 -60.447264 23.973996 -22.513219 -10.124300 -7.125000 0.000000 0.000000 -2.798800 4.973000 2.548800 -6.087117 7.848396 1.753906 92.239823 -14.828963 10.352800 -47.727028 50.489360 -18.906870 1.924249 -2.376346 6.057290 5.564062 -42.851951 -2.163700 7.125000 0.000000 0.000000 49.343200 -64.068500 -25.730500 
